<?xml version="1.0" encoding="UTF-8"?>
<svg id="Layer_1" xmlns="http://www.w3.org/2000/svg" version="1.1" viewBox="0 0 22 20">
  <!-- Generator: Adobe Illustrator 29.4.0, SVG Export Plug-In . SVG Version: 2.1.0 Build 152)  -->
  <defs>
    <style>
      .st0 {
        fill: #fff;
      }
    </style>
  </defs>
  <path class="st0" d="M21,3.6H4l-.3-2.8C3.7.4,3.3,0,2.8,0H1C.5,0,0,.4,0,.9s.4.9.9.9h1l1,11.5c0,.8.5,1.7,1.3,2.3-1.4,1.8-.1,4.4,2.1,4.4s3.2-1.9,2.6-3.6h4.9c-.6,1.8.7,3.6,2.6,3.6,1.5,0,2.7-1.2,2.7-2.7,0-1.5-1.2-2.7-2.7-2.7H6.5c-.7,0-1.3-.4-1.5-1l14.3-.8c.4,0,.7-.3.8-.7l1.8-7.3c.1-.5-.2-1-.7-1.1,0,0-.1,0-.2,0h0ZM6.4,18.2c-.5,0-.9-.5-.9-1,0-.5.4-.9.9-.9.5,0,.9.5.9,1,0,.5-.4.9-.9.9ZM16.5,18.2c-.5,0-.9-.5-.9-1,0-.5.4-.9.9-.9.5,0,.9.5.9,1,0,.5-.4.9-.9.9ZM18.5,11l-13.8.8-.6-6.3h15.8l-1.4,5.5h0Z"/>
</svg>